<?xml version="1.0" encoding="iso-8859-1"?>
<!-- Uploaded to: SVG Repo, www.svgrepo.com, Generator: SVG Repo Mixer Tools -->
<svg height="800px" width="800px" version="1.1" id="Layer_1" xmlns="http://www.w3.org/2000/svg" xmlns:xlink="http://www.w3.org/1999/xlink" 
	 viewBox="0 0 512 512" xml:space="preserve">
<path style="fill:#00ABE9;" d="M503.374,344.788H8.348V185.834c0-19.834,12.833-37.343,31.655-43.186l74.496-23.107
	c22.239-6.901,46.436-0.89,62.943,15.638l83.734,76.399c23.162,15.46,48.406,27.392,74.897,35.462
	c15.048,4.586,30.497,7.914,46.202,9.951c11.954,1.536,24.064,2.326,36.252,2.326c23.43,0,44.644,9.572,59.993,25.032
	C493.88,299.821,503.374,321.18,503.374,344.788z"/>
<path style="fill:#0081D1;" d="M503.374,344.788H382.275v-87.797c11.954,1.536,24.064,2.326,36.252,2.326
	c23.43,0,44.644,9.572,59.993,25.032C493.88,299.821,503.374,321.18,503.374,344.788z"/>
<path style="fill:#57555C;" d="M64.913,344.974l162.764-163.968c11.766-11.853,11.766-31.071,0-42.923l0,0
	c-11.766-11.853-30.842-11.853-42.608,0L10.035,314.409v30.563h54.877V344.974z"/>
<path style="fill:#3C3A41;" d="M511.66,342.441c-1.243-50.65-42.527-91.475-93.132-91.475c-11.721,0-23.364-0.746-34.873-2.212
	c-0.242-0.04-0.484-0.071-0.732-0.091c-16.294-2.119-32.314-5.698-47.902-10.672c-0.441-0.185-0.894-0.325-1.355-0.431
	c-14.828-4.817-29.254-10.915-43.147-18.234c-0.176-0.101-0.353-0.196-0.533-0.283c-8.257-4.373-16.328-9.171-24.174-14.406
	c-3.833-2.558-9.019-1.524-11.578,2.311c-2.559,3.834-1.525,9.019,2.311,11.577c5.276,3.519,10.651,6.847,16.106,10.001
	l-25.04,25.226c-3.248,3.271-3.229,8.557,0.043,11.805c1.628,1.616,3.754,2.423,5.881,2.423c2.146,0,4.293-0.823,5.925-2.467
	l28.512-28.722c9.307,4.667,18.83,8.819,28.535,12.448l-26.758,26.955c-3.248,3.271-3.228,8.557,0.043,11.805
	c1.628,1.616,3.755,2.423,5.881,2.423c2.147,0,4.292-0.823,5.925-2.467l32.515-32.755c13.024,3.941,26.322,6.957,39.811,9.037
	v71.622c0,0.195,0.016,0.385,0.029,0.577h-96.908l-45.561-45.897c-1.567-1.578-3.7-2.467-5.925-2.467h-92.405l100.443-101.187
	c14.966-15.076,14.967-39.608,0-54.685c-7.269-7.324-16.939-11.356-27.227-11.356l0,0c-8.595,0-16.752,2.824-23.445,8.021
	c-18.728-18.439-45.835-25.072-70.902-17.294l-74.497,23.11C15.082,141.643,0,162.201,0,185.837v158.948v50.498
	c0,4.61,3.738,8.348,8.348,8.348h495.304c4.611,0,8.348-3.738,8.348-8.348v-50.498C512,343.971,511.878,343.186,511.66,342.441z
	 M390.624,335.861v-69.535c9.238,0.883,18.548,1.336,27.905,1.336c39.382,0,71.897,30.162,76.039,68.775H390.594
	C390.608,336.246,390.624,336.056,390.624,335.861z M222.087,304.768l31.436,31.669H85.149l31.437-31.669H222.087z M221.752,143.962
	c8.528,8.592,8.528,22.57,0,31.162L61.624,336.437H16.696v-16.887l171.913-173.185c0.003-0.003,0.006-0.006,0.009-0.008
	c0.003-0.003,0.006-0.007,0.009-0.01l2.366-2.383c4.112-4.142,9.574-6.423,15.38-6.423S217.64,139.821,221.752,143.962z
	 M42.475,150.625l74.497-23.11c19.042-5.906,39.63-0.934,53.953,12.965L16.696,295.85V185.836
	C16.696,169.559,27.056,155.409,42.475,150.625z M16.696,353.132h46.48c0.573,0.121,1.155,0.188,1.739,0.188s1.166-0.067,1.74-0.188
	h69.596l-32.533,32.774c-0.321,0.323-0.6,0.67-0.856,1.027H16.696V353.132z M495.304,386.934H126.22l33.554-33.802h335.53V386.934z"
	/>
</svg>